<svg width="23" height="21" viewBox="0 0 23 21" fill="none" xmlns="http://www.w3.org/2000/svg">
<path d="M4.5 19H18C18.0446 19 18.0627 19.0067 18.0654 19.0078C18.0677 19.0087 18.0765 19.0131 18.0947 19.0312C18.1135 19.05 18.1167 19.0593 18.1172 19.0605C18.1184 19.0636 18.1251 19.0812 18.125 19.123C18.1249 19.1672 18.1178 19.1856 18.1162 19.1895C18.115 19.1925 18.1112 19.2031 18.0918 19.2227C18.0819 19.2326 18.0744 19.2372 18.0713 19.2393C18.0684 19.2412 18.0669 19.2426 18.0654 19.2432C18.0637 19.2439 18.0472 19.2502 18.0049 19.25H4.5C4.45542 19.25 4.43781 19.2431 4.43555 19.2422C4.43408 19.2416 4.42531 19.2379 4.40723 19.2197C4.38846 19.2008 4.38481 19.191 4.38379 19.1885C4.38227 19.1847 4.37514 19.1666 4.375 19.123C4.3749 19.0808 4.38188 19.0638 4.38281 19.0615C4.38357 19.0597 4.38441 19.0572 4.38672 19.0537C4.38917 19.0501 4.39485 19.0426 4.40527 19.0322C4.42443 19.0132 4.43413 19.0088 4.43652 19.0078C4.43933 19.0067 4.45682 19 4.5 19ZM11.4268 3.65625L14.9424 8.46484L15.4199 9.11816L16.1592 8.78809L19.5488 7.26855L18.4463 14.2686C18.3913 14.5754 18.2548 14.8125 18.0156 15.0146C17.7721 15.2203 17.5173 15.3124 17.2129 15.3125H5.28711C4.98381 15.3124 4.72913 15.2206 4.48535 15.0146C4.24511 14.8116 4.10698 14.5734 4.05176 14.2646L2.9502 7.26855L6.34082 8.78809L7.08008 9.11816L7.55762 8.46484L11.0732 3.65625L11.25 3.41309L11.4268 3.65625ZM1.69043 4.9375C1.89171 4.93685 2.03534 4.99627 2.17676 5.1377C2.31781 5.27891 2.37595 5.42085 2.375 5.62012V5.625C2.375 5.68402 2.36899 5.72256 2.36328 5.74512C2.34361 5.82275 2.32304 5.8852 2.30371 5.93457L2.16699 6.28418H1.94043C1.84196 6.28419 1.74996 6.2959 1.66699 6.31055C1.47128 6.3066 1.3333 6.24721 1.2002 6.11426C1.06229 5.97635 1.00033 5.83173 1 5.62305C0.999741 5.41717 1.06002 5.27597 1.19727 5.13965C1.33846 4.99942 1.4842 4.93822 1.69043 4.9375ZM20.8105 4.9375C21.0168 4.93783 21.1621 4.99878 21.3027 5.13867C21.4408 5.27607 21.5007 5.41773 21.5 5.62207C21.4993 5.83143 21.4372 5.97691 21.2988 6.11621C21.1689 6.24707 21.0328 6.30685 20.835 6.31055C20.7559 6.29698 20.67 6.28597 20.5791 6.28418L20.334 6.2793L20.1943 5.92871C20.1754 5.88147 20.155 5.821 20.1357 5.74512L20.125 5.63086V5.625C20.125 5.41882 20.1862 5.27577 20.3252 5.13672C20.4641 4.99779 20.6063 4.93724 20.8105 4.9375ZM11.248 1C11.4543 1.00033 11.5996 1.06128 11.7402 1.20117C11.8783 1.33857 11.9382 1.48023 11.9375 1.68457V1.6875C11.9375 1.806 11.9118 1.90534 11.8604 2.00098C11.7941 2.12404 11.7212 2.20242 11.6465 2.25684L11.25 2.54492L10.8535 2.25684C10.7788 2.20242 10.7059 2.12404 10.6396 2.00098C10.5882 1.90534 10.5625 1.806 10.5625 1.6875C10.5625 1.48132 10.6237 1.33827 10.7627 1.19922C10.9016 1.06028 11.0438 0.999742 11.248 1Z" stroke="#E82A91" stroke-width="2"/>
</svg>
